<svg fill='#f3f3f3' xmlns="http://www.w3.org/2000/svg" viewBox="0 0 24 24"><path d="M15.627 16.584c-1.032 0-1.952-.365-2.653-1.027-.687-.665-1.035-1.527-.984-2.433.049-.871.462-1.673 1.164-2.259a3.799 3.799 0 0 1 2.418-.866h.024c.906 0 1.772.308 2.439.866.701.586 1.114 1.388 1.164 2.258.05.908-.298 1.771-.98 2.431a3.749 3.749 0 0 1-2.592 1.03zm-.055-5.585c-.652 0-1.284.226-1.778.635-.485.406-.772.956-.807 1.547-.033.61.208 1.198.678 1.654.51.482 1.186.75 1.898.75.777 0 1.451-.268 1.964-.753.467-.452.708-1.04.674-1.653-.034-.59-.32-1.139-.807-1.547a2.799 2.799 0 0 0-1.798-.633h-.024z"/><path d="M15.51 21.75c-1.344 0-2.611-.265-3.729-.765a8.4 8.4 0 0 1-2.83-2.012 7.488 7.488 0 0 1-1.639-2.805 6.714 6.714 0 0 1-.25-1.186l-3.65 2.958c-.543.435-1.213.641-1.84.569a1.782 1.782 0 0 1-1.213-.652 1.725 1.725 0 0 1-.343-1.303c.077-.606.432-1.189.974-1.6l7.107-5.402-3.14.006c-.579-.003-1.082-.226-1.387-.612a1.346 1.346 0 0 1-.251-1.162c.194-.837 1.121-1.496 2.111-1.497l7.73-.008-1.894-1.526c-.335-.273-.516-.656-.5-1.051.017-.422.253-.82.648-1.093.702-.487 1.722-.481 2.369.011l7.205 5.478a8.032 8.032 0 0 1 1.89 2.065A7.216 7.216 0 0 1 24 14.008c0 .737-.115 1.476-.332 2.137a7.592 7.592 0 0 1-1.633 2.804h-.001a8.524 8.524 0 0 1-2.823 2.021 9.09 9.09 0 0 1-3.701.78zm-7.467-7.035c.013.265.101.768.221 1.146.299.92.777 1.74 1.421 2.433a7.36 7.36 0 0 0 2.452 1.757 8.123 8.123 0 0 0 3.307.699c1.21 0 2.319-.234 3.361-.694a7.524 7.524 0 0 0 2.489-1.777l.006-.007a6.552 6.552 0 0 0 1.404-2.388 6.093 6.093 0 0 0 .231-2.757 6.224 6.224 0 0 0-.9-2.427 6.973 6.973 0 0 0-1.637-1.795l-7.219-5.489c-.297-.226-.856-.219-1.195.015-.134.093-.214.206-.218.311-.004.102.069.183.131.233l2.993 2.413a.5.5 0 0 1-.313.889l-9.146.01c-.517 0-1.049.339-1.138.725a.35.35 0 0 0 .062.315c.114.143.338.229.603.23l4.626-.007h.001a.501.501 0 0 1 .303.898L1.594 15.75c-.325.246-.543.593-.586.93a.735.735 0 0 0 .137.558c.154.196.379.259.542.278.362.044.77-.091 1.098-.355L7.29 13.51a.5.5 0 0 1 .811.455 5.801 5.801 0 0 0-.056.712l-.002.038zm7.433 3.595c-1.535 0-2.947-.57-3.977-1.607a4.764 4.764 0 0 1-1.096-1.684 4.536 4.536 0 0 1 .293-3.793 5.018 5.018 0 0 1 1.218-1.438 5.706 5.706 0 0 1 3.576-1.242h.01c1.312 0 2.577.435 3.561 1.226.512.413.925.898 1.228 1.444a4.454 4.454 0 0 1 .579 2.206c0 .531-.094 1.055-.278 1.555l-.002.005a4.846 4.846 0 0 1-1.102 1.71l-.019.018c-1.031 1.03-2.441 1.599-3.973 1.601l-.018-.001zm.023-8.765h-.008c-1.089.002-2.134.362-2.941 1.014-.402.323-.729.71-.983 1.157a3.54 3.54 0 0 0-.238 2.919c.201.529.493.978.877 1.36.843.848 2.003 1.314 3.271 1.314h.014c1.273-.002 2.439-.472 3.283-1.323l.02-.019c.373-.377.661-.828.857-1.341a3.482 3.482 0 0 0-.233-2.921 3.964 3.964 0 0 0-.984-1.157c-.808-.646-1.85-1.003-2.935-1.003zm4.62 5.258h.01-.01z"/></svg>