<svg id="Layer_1" data-name="Layer 1" xmlns="http://www.w3.org/2000/svg" viewBox="0 0 491 477.37"><defs><style>.cls-1{fill:none;}.cls-1,.cls-2{stroke:#000;stroke-linecap:round;stroke-linejoin:round;stroke-width:3px;}.cls-2,.cls-3{fill:#ff952B;}</style></defs><polygon class="cls-1" points="180.5 33.5 465.5 134.5 465.5 354.56 186.5 212.5 180.5 33.5"/><path class="cls-1" d="M178.5,27.5l306,109v245l-95.19-48.91-68.52-35.2L187.5,228.91Z" transform="translate(-7 -10)"/><polygon class="cls-2" points="171.5 17.5 180.5 15.56 489.5 123.5 477.5 126.5 171.5 17.5"/><polygon class="cls-2" points="477.5 371.5 489.5 363.44 489.5 123.5 477.5 126.5 477.5 371.5"/><path class="cls-1" d="M322.5,309.5" transform="translate(-7 -10)"/><path class="cls-1" d="M325.5,319.5a17,17,0,0,1-5-7,39.72,39.72,0,0,1-2-15" transform="translate(-7 -10)"/><path class="cls-1" d="M295.5,305.5c1.49-1.59,4-4.1,5-8s1.51-7.62,1-10" transform="translate(-7 -10)"/><path class="cls-1" d="M300.5,287.5c-12.2-4.29-17.44-4.58-23-3-.83.24-10.54,3.14-13,11-2.6,8.32.83,17.15,7,24,9,10,29,20,46,22,7.95.94,16.28,2.83,26-3,5-3,8.63-11.48,7-18-1-4-3.89-8.37-5-9C329.5,302.5,309.23,290.57,300.5,287.5Z" transform="translate(-7 -10)"/><path class="cls-3" d="M437.5,404.5a38.15,38.15,0,0,0-5,7,37.5,37.5,0,0,0-3,6.94l-1,.06c-8.13.59-12.75,3.32-15,5l-.19-.05c1.43-5.31,4.18-10.11,7.19-12.95,5.21-4.91,11.52-5.72,14-6,.74-.08,1.77-.2,3-.25Z" transform="translate(-7 -10)"/><path class="cls-1" d="M413.31,423.45c-1.56,5.69-1.59,12,1.19,17.05,4.25,7.77,14.21,9.34,23,8,13.16-2,16.42-16,17-18,.46-1.6,5-14.66-3-22-4.37-4-10.14-4.44-14-4.25-1.22.05-2.25.17-3,.25-2.48.28-8.79,1.09-14,6C417.49,413.34,414.74,418.14,413.31,423.45Z" transform="translate(-7 -10)"/><path class="cls-1" d="M429.5,418.5s0,0,0-.06a37.5,37.5,0,0,1,3-6.94,38.15,38.15,0,0,1,5-7" transform="translate(-7 -10)"/><path class="cls-1" d="M447.5,423.5a31,31,0,0,0-18-5.06l-1,.06c-8.13.59-12.75,3.32-15,5" transform="translate(-7 -10)"/><path class="cls-1" d="M387.5,332.5c3,15,8,20,16,28,10,10,18,12,25,15,7.68,3.29,12,6,15,13,3.25,7.58.51,13.82,0,16" transform="translate(-7 -10)"/><path class="cls-1" d="M230.5,40.5c8.33-2.33,17.67-5.67,26-8l-47-21-198,54,52,31c40.4-13.71,75.6-25.29,116-39" transform="translate(-7 -10)"/><path class="cls-1" d="M64.5,337.5" transform="translate(-7 -10)"/><polygon class="cls-2" points="55.74 327.5 1.5 283.5 4.5 55.5 56.5 86.5 55.74 327.5"/><line class="cls-1" x1="245.5" y1="252.5" x2="55.74" y2="327.5"/><polygon class="cls-1" points="10.5 72.5 10.5 88.54 45.5 111.5 45.5 93.63 10.5 72.5"/><polygon class="cls-1" points="10.5 238.5 10.5 253.28 19.5 259.5 19.5 243.7 10.5 238.5"/><path class="cls-1" d="M19.5,280.5c1,0,32,24,32,24" transform="translate(-7 -10)"/><line class="cls-2" x1="249.5" y1="38.5" x2="249.5" y2="22.5"/><polyline class="cls-1" points="67.5 323.5 67.5 332.5 91.5 322.5 91.5 314.3"/><line class="cls-1" x1="58.5" y1="326.5" x2="67.5" y2="332.5"/><polygon class="cls-2" points="117.5 355.5 165.5 318.5 175.5 313.5 376.5 425.5 364.5 434.5 311.45 475.87 117.5 355.5"/><path class="cls-1" d="M383.5,435.5c-3.07,4.55-5.87,13.21-11,17-23,17-40,27.75-54,33" transform="translate(-7 -10)"/><path class="cls-1" d="M371.5,462.5" transform="translate(-7 -10)"/><polyline class="cls-1" points="368.92 438.93 368.92 446 361.5 451.5 361.5 446.5"/><polygon class="cls-1" points="129.3 354.56 168.83 323.4 293.5 396.5 256.62 419.59 196.5 382.5 185.5 390.5 129.3 354.56"/><polygon class="cls-1" points="252.5 422.5 244.5 427.5 193.5 395.5 201.5 391.5 252.5 422.5"/><polygon class="cls-1" points="271.81 417.45 300.5 399.5 328.5 414.5 299.5 433.5 271.81 417.45"/><polygon class="cls-1" points="267.5 430.5 275.5 425.5 284.5 430.5 275.5 435.5 283.5 439.5 273.5 445.5 253.5 432.5 261.5 427.5 267.5 430.5"/><polygon class="cls-1" points="284.73 451.16 320.73 426.16 345.5 437.5 308 465.37 284.73 451.16"/><line class="cls-1" x1="160.5" y1="331.5" x2="281.57" y2="403.84"/><line class="cls-1" x1="150.2" y1="338.54" x2="270.28" y2="410.81"/><line class="cls-1" x1="139.5" y1="346.5" x2="202.56" y2="386.15"/><polyline class="cls-1" points="139.5 359.5 178.5 329.5 188.92 335.18 147.97 366.33 158.63 373.05 198.47 340.78 207.78 346.25 166.71 378.14 175.25 383.52 217.06 351.69 228.04 358.12 196.5 382.5 207.5 389.5 237.5 364.5 248.69 370.23 217.39 395.33 227.5 401.5 259.5 376.5 270.28 382.88 236.46 407.12 247 413.64 281.57 389.51"/><path class="cls-1" d="M180.39,69.75,77.5,107.5s-1,210,0,210,159.29-63.24,159.29-63.24" transform="translate(-7 -10)"/><path class="cls-1" d="M292.5,309.5a10.56,10.56,0,0,0,3,7,20.92,20.92,0,0,0,6,4" transform="translate(-7 -10)"/><path class="cls-1" d="M306.53,322.21a29.94,29.94,0,0,1,2.94.58" transform="translate(-7 -10)"/><polyline class="cls-1" points="280.94 422.3 309.99 404.7 319.5 409.5 291.6 428.03"/><polyline class="cls-1" points="308.5 426.5 281.5 411.5 291.5 405.5 318.5 420.5"/></svg>